{"title":"Frozen 2013 DVDScr x264 AC3 CrEwSaDe","uid":9451689,"size":1491047432,"categoryP":"video","categoryS":"movies","magnet":"?xt=urn:btih:679b166379e49386527ef44861c7372887742ca0&amp;dn=Frozen+2013+DVDScr+x264+AC3+CrEwSaDe&amp;tr=udp%3A%2F%2Ftracker.openbittorrent.com%3A80&amp;tr=udp%3A%2F%2Fopen.demonii.com%3A1337&amp;tr=udp%3A%2F%2Ftracker.coppersurfer.tk%3A6969&amp;tr=udp%3A%2F%2Fexodus.desync.com%3A6969","seeders":5,"leechers":1,"uploader":"TKTh3K1ng","files":4,"time":1389193350,"description":"Release Brought to you by CrEwSaDe\n                              \n\n[IMG]http://i1179.photobucket.com/albums/x394/crewsade/Knife/Frozen.jpg[/IMG]\n\n******************************************************************************************************              \nFrozen 2013 DVDScr x264 AC3 CrEwSaDe\n******************************************************************************************************\n                                                    \nVideo Codec.......:AVC \nVideo Bitrate.....:1 567 Kbps                \nAudio Codec.......:AC-3                                                    \nResolution........:720x304\nRuntime...........:1h 40mn                            \nRelease Date......:07/01/14 \nTheatre Date......:27 November 2013 (USA)   \nLanguage..........:English \nSubtitles.........:N/A \nIMDB Rating.......:8.1\t\nIMDb URL..........:http://www.imdb.com/title/tt2294629\n\n_______________________________________________________________________________\n\nGeneral\nFormat                                   : Matroska\nFormat version                           : Version 2\nFile size                                : 1.37 GiB\nDuration                                 : 1h 40mn\nOverall bit rate                         : 1 949 Kbps\n\n________________________________________________________________________________\n\nVideo\nID                                       : 1\nFormat                                   : AVC\nFormat/Info                              : Advanced Video Codec\nFormat profile                           : &lt;a class=&quot;__cf_email__&quot; href=&quot;/cdn-cgi/l/email-protection&quot; data-cfemail=&quot;0e466769664e423d203f&quot;&gt;[email&amp;#160;protected]&lt;/a&gt;&lt;script cf-hash='f9e31' type=&quot;text/javascript&quot;&gt;\n/* &lt;![CDATA[ */!function(){try{var t=&quot;currentScript&quot;in document?document.currentScript:function(){for(var t=document.getElementsByTagName(&quot;script&quot;),e=t.length;e--;)if(t[e].getAttribute(&quot;cf-hash&quot;))return t[e]}();if(t&amp;&amp;t.previousSibling){var e,r,n,i,c=t.previousSibling,a=c.getAttribute(&quot;data-cfemail&quot;);if(a){for(e=&quot;&quot;,r=parseInt(a.substr(0,2),16),n=2;a.length-n;n+=2)i=parseInt(a.substr(n,2),16)^r,e+=String.fromCharCode(i);e=document.createTextNode(e),c.parentNode.replaceChild(e,c)}}}catch(u){}}();/* ]]&gt; */&lt;/script&gt;\nFormat settings, CABAC                   : Yes\nFormat settings, ReFrames                : 4 frames\nCodec ID                                 : V_MPEG4/ISO/AVC\nDuration                                 : 1h 40mn\nBit rate                                 : 1 567 Kbps\nWidth                                    : 720 pixels\nHeight                                   : 304 pixels\nDisplay aspect ratio                     : 2.35:1\nFrame rate                               : 29.970 fps\nColor space                              : YUV\nChroma subsampling                       : 4:2:0\nBit depth                                : 8 bits\nScan type                                : Progressive\nBits/(Pixel*Frame)                       : 0.239\nStream size                              : 1.08 GiB (78%)\n\n_________________________________________________________________________________\n\nAudio\nID                                       : 2\nFormat                                   : AC-3\nFormat/Info                              : Audio Coding 3\nMode extension                           : CM (complete main)\nCodec ID                                 : A_AC3\nDuration                                 : 1h 40mn\nBit rate mode                            : Constant\nBit rate                                 : 384 Kbps\nChannel(s)                               : 6 channels\nChannel positions                        : Front: L C R, Side: L R, LFE\nSampling rate                            : 48.0 KHz\nBit depth                                : 16 bits\nCompression mode                         : Lossy\nStream size                              : 277 MiB (20%)\nDefault                                  : Yes\nForced                                   : No[/color]\n\n_________________________________________________________________________________\n\n\n[color=red]SOURCES:VOBs[/color]Thanks\n\n\n_________________________________________________________________________________\n\nPlot:Fearless optimist Anna teams up with Kristoff in an epic journey, encountering Everest-like conditions, and a hilarious snowman named Olaf in a race to find Anna's sister Elsa, whose icy powers have trapped the kingdom in eternal winter.\n\n_________________________________________________________________________________\n \n\nScreens:[IMG]http://i1179.photobucket.com/albums/x394/crewsade/Knife/vlcsnap-2014-01-08-00h51m18s241.png[/IMG]\n[IMG]http://i1179.photobucket.com/albums/x394/crewsade/Knife/vlcsnap-2014-01-08-01h03m57s156.png[/IMG]\n[IMG]http://i1179.photobucket.com/albums/x394/crewsade/Knife/vlcsnap-2014-01-08-01h02m04s50.png[/IMG]\n[IMG]http://i1179.photobucket.com/albums/x394/crewsade/Knife/vlcsnap-2014-01-08-00h59m21s209.png[/IMG]\n[IMG]http://i1179.photobucket.com/albums/x394/crewsade/Knife/vlcsnap-2014-01-08-00h56m22s217.png[/IMG]\n[IMG]http://i1179.photobucket.com/albums/x394/crewsade/Knife/vlcsnap-2014-01-08-00h53m44s168.png[/IMG]\n\n_________________________________________________________________________________\n\n\n[color=red]Youtube Trailer:[/color]\n\n\n_________________________________________________________________________________\n\n\n[color=red]Sample Included [/color]\n\n_________________________________________________________________________________\n","torrent":{"xt":"urn:btih:679b166379e49386527ef44861c7372887742ca0","amp;dn":"Frozen+2013+DVDScr+x264+AC3+CrEwSaDe","amp;tr":["udp%3A%2F%2Ftracker.openbittorrent.com%3A80","udp%3A%2F%2Fopen.demonii.com%3A1337","udp%3A%2F%2Ftracker.coppersurfer.tk%3A6969","udp%3A%2F%2Fexodus.desync.com%3A6969"],"infoHash":"679b166379e49386527ef44861c7372887742ca0","infoHashBuffer":{"type":"Buffer","data":[103,155,22,99,121,228,147,134,82,126,244,72,97,199,55,40,135,116,44,160]},"announce":[],"urlList":[]}}